<?xml version="1.0" standalone="no"?><!DOCTYPE svg PUBLIC "-//W3C//DTD SVG 1.1//EN" "http://www.w3.org/Graphics/SVG/1.1/DTD/svg11.dtd"><svg fill="#2c2c2c" t="1604455607166" class="icon" viewBox="0 0 1024 1024" version="1.1" xmlns="http://www.w3.org/2000/svg" p-id="1768" xmlns:xlink="http://www.w3.org/1999/xlink" width="200" height="200"><defs><style type="text/css"></style></defs><path d="M170.666725 654.222285l199.111077 0 0 199.111077-199.111077 0 0-199.111077Z" p-id="1769"></path><path d="M8.7e-05 0.000174l85.333319 0 0 341.333275-85.333319 0 0-341.333275Z" p-id="1770"></path><path d="M142.222285 0.000174l85.333319 0 0 341.333275-85.333319 0 0-341.333275Z" p-id="1771"></path><path d="M312.888923 0.000174l142.222198 0 0 341.333275-142.222198 0 0-341.333275Z" p-id="1772"></path><path d="M796.444396 0.000174l56.888879 0 0 341.333275-56.888879 0 0-341.333275Z" p-id="1773"></path><path d="M625.777758 0.000174l113.777758 0 0 341.333275-113.777758 0 0-341.333275Z" p-id="1774"></path><path d="M8.7e-05 1024l540.444353 0 0-540.444353-540.444353 0L8.7e-05 1024zM85.333406 568.888966l369.777715 0 0 369.777715-369.777715 0L85.333406 568.888966z" p-id="1775"></path><path d="M938.666594 938.666681 654.222198 938.666681 654.222198 1024 1023.999913 1024 1023.999913 682.666725 938.666594 682.666725Z" p-id="1776"></path><path d="M938.666594 0.000174l85.333319 0 0 341.333275-85.333319 0 0-341.333275Z" p-id="1777"></path><path d="M938.666594 483.555647l85.333319 0 0 113.777758-85.333319 0 0-113.777758Z" p-id="1778"></path><path d="M711.111077 483.555647l85.333319 0 0 284.444396-85.333319 0 0-284.444396Z" p-id="1779"></path><path d="M512 0.000174l56.888879 0 0 341.333275-56.888879 0 0-341.333275Z" p-id="1780"></path></svg>